<mxfile host="app.diagrams.net" modified="2023-08-05T07:44:10.533Z" agent="Mozilla/5.0 (Macintosh; Intel Mac OS X 10_15_7) AppleWebKit/537.36 (KHTML, like Gecko) Chrome/114.0.0.0 Safari/537.36" etag="jyKug1l3Go2AU9z8RbnH" version="21.6.6" type="device">
  <diagram name="Sayfa -1" id="zooU-yzxAuMfSw6TUJKO">
    <mxGraphModel dx="1036" dy="669" grid="1" gridSize="10" guides="1" tooltips="1" connect="1" arrows="1" fold="1" page="1" pageScale="1" pageWidth="827" pageHeight="1169" math="0" shadow="0">
      <root>
        <mxCell id="0" />
        <mxCell id="1" parent="0" />
        <mxCell id="A6t6CvPQU8GeuRs_HmMb-1" value="&lt;p style=&quot;margin:0px;margin-top:4px;text-align:center;&quot;&gt;&lt;b&gt;Üniversite&lt;/b&gt;&lt;/p&gt;&lt;hr size=&quot;1&quot;&gt;&lt;p style=&quot;margin:0px;margin-left:4px;&quot;&gt;+ field: Type&lt;/p&gt;&lt;hr size=&quot;1&quot;&gt;&lt;p style=&quot;margin:0px;margin-left:4px;&quot;&gt;+ method(): Type&lt;/p&gt;" style="verticalAlign=top;align=left;overflow=fill;fontSize=12;fontFamily=Helvetica;html=1;whiteSpace=wrap;" vertex="1" parent="1">
          <mxGeometry x="334" y="323" width="160" height="90" as="geometry" />
        </mxCell>
        <mxCell id="A6t6CvPQU8GeuRs_HmMb-10" value="" style="endArrow=diamondThin;endFill=0;endSize=24;html=1;rounded=0;entryX=0.5;entryY=1;entryDx=0;entryDy=0;exitX=0.5;exitY=0;exitDx=0;exitDy=0;" edge="1" parent="1" source="A6t6CvPQU8GeuRs_HmMb-17" target="A6t6CvPQU8GeuRs_HmMb-1">
          <mxGeometry width="160" relative="1" as="geometry">
            <mxPoint x="40" y="723" as="sourcePoint" />
            <mxPoint x="200" y="723" as="targetPoint" />
          </mxGeometry>
        </mxCell>
        <mxCell id="A6t6CvPQU8GeuRs_HmMb-14" value="" style="endArrow=block;endSize=16;endFill=0;html=1;rounded=1;entryX=0.5;entryY=1;entryDx=0;entryDy=0;exitX=0.5;exitY=0;exitDx=0;exitDy=0;" edge="1" parent="1" source="A6t6CvPQU8GeuRs_HmMb-18" target="A6t6CvPQU8GeuRs_HmMb-17">
          <mxGeometry width="160" relative="1" as="geometry">
            <mxPoint x="40" y="813" as="sourcePoint" />
            <mxPoint x="200" y="813" as="targetPoint" />
            <Array as="points">
              <mxPoint x="254" y="793" />
              <mxPoint x="414" y="793" />
            </Array>
          </mxGeometry>
        </mxCell>
        <mxCell id="A6t6CvPQU8GeuRs_HmMb-15" value="&lt;p style=&quot;margin:0px;margin-top:4px;text-align:center;&quot;&gt;&lt;b&gt;Departmanlar&lt;/b&gt;&lt;/p&gt;&lt;hr size=&quot;1&quot;&gt;&lt;p style=&quot;margin:0px;margin-left:4px;&quot;&gt;+ field: Type&lt;/p&gt;&lt;hr size=&quot;1&quot;&gt;&lt;p style=&quot;margin:0px;margin-left:4px;&quot;&gt;+ method(): Type&lt;/p&gt;" style="verticalAlign=top;align=left;overflow=fill;fontSize=12;fontFamily=Helvetica;html=1;whiteSpace=wrap;" vertex="1" parent="1">
          <mxGeometry x="90" y="493" width="160" height="90" as="geometry" />
        </mxCell>
        <mxCell id="A6t6CvPQU8GeuRs_HmMb-16" value="&lt;p style=&quot;margin:0px;margin-top:4px;text-align:center;&quot;&gt;&lt;b&gt;Ofisler&lt;/b&gt;&lt;/p&gt;&lt;hr size=&quot;1&quot;&gt;&lt;p style=&quot;margin:0px;margin-left:4px;&quot;&gt;+ field: Type&lt;/p&gt;&lt;hr size=&quot;1&quot;&gt;&lt;p style=&quot;margin:0px;margin-left:4px;&quot;&gt;+ method(): Type&lt;/p&gt;" style="verticalAlign=top;align=left;overflow=fill;fontSize=12;fontFamily=Helvetica;html=1;whiteSpace=wrap;" vertex="1" parent="1">
          <mxGeometry x="600" y="493" width="160" height="90" as="geometry" />
        </mxCell>
        <mxCell id="A6t6CvPQU8GeuRs_HmMb-17" value="&lt;p style=&quot;margin:0px;margin-top:4px;text-align:center;&quot;&gt;&lt;b&gt;Çalışanlar&lt;/b&gt;&lt;/p&gt;&lt;hr size=&quot;1&quot;&gt;&lt;p style=&quot;margin:0px;margin-left:4px;&quot;&gt;+ field: Type&lt;/p&gt;&lt;hr size=&quot;1&quot;&gt;&lt;p style=&quot;margin:0px;margin-left:4px;&quot;&gt;+ method(): Type&lt;/p&gt;" style="verticalAlign=top;align=left;overflow=fill;fontSize=12;fontFamily=Helvetica;html=1;whiteSpace=wrap;" vertex="1" parent="1">
          <mxGeometry x="334" y="663" width="160" height="90" as="geometry" />
        </mxCell>
        <mxCell id="A6t6CvPQU8GeuRs_HmMb-18" value="&lt;p style=&quot;margin:0px;margin-top:4px;text-align:center;&quot;&gt;&lt;b&gt;Prof&lt;/b&gt;&lt;/p&gt;&lt;hr size=&quot;1&quot;&gt;&lt;p style=&quot;margin:0px;margin-left:4px;&quot;&gt;+ field: Type&lt;/p&gt;&lt;hr size=&quot;1&quot;&gt;&lt;p style=&quot;margin:0px;margin-left:4px;&quot;&gt;+ method(): Type&lt;/p&gt;" style="verticalAlign=top;align=left;overflow=fill;fontSize=12;fontFamily=Helvetica;html=1;whiteSpace=wrap;" vertex="1" parent="1">
          <mxGeometry x="174" y="857" width="160" height="90" as="geometry" />
        </mxCell>
        <mxCell id="A6t6CvPQU8GeuRs_HmMb-19" value="&lt;p style=&quot;margin:0px;margin-top:4px;text-align:center;&quot;&gt;&lt;b&gt;Memur&lt;/b&gt;&lt;/p&gt;&lt;hr size=&quot;1&quot;&gt;&lt;p style=&quot;margin:0px;margin-left:4px;&quot;&gt;+ field: Type&lt;/p&gt;&lt;hr size=&quot;1&quot;&gt;&lt;p style=&quot;margin:0px;margin-left:4px;&quot;&gt;+ method(): Type&lt;/p&gt;" style="verticalAlign=top;align=left;overflow=fill;fontSize=12;fontFamily=Helvetica;html=1;whiteSpace=wrap;" vertex="1" parent="1">
          <mxGeometry x="494" y="857" width="160" height="90" as="geometry" />
        </mxCell>
        <mxCell id="A6t6CvPQU8GeuRs_HmMb-22" value="" style="endArrow=diamondThin;endFill=0;endSize=24;html=1;rounded=1;exitX=0.5;exitY=0;exitDx=0;exitDy=0;entryX=0;entryY=0.5;entryDx=0;entryDy=0;" edge="1" parent="1" source="A6t6CvPQU8GeuRs_HmMb-15" target="A6t6CvPQU8GeuRs_HmMb-1">
          <mxGeometry width="160" relative="1" as="geometry">
            <mxPoint x="150" y="383" as="sourcePoint" />
            <mxPoint x="310" y="383" as="targetPoint" />
            <Array as="points">
              <mxPoint x="170" y="368" />
            </Array>
          </mxGeometry>
        </mxCell>
        <mxCell id="A6t6CvPQU8GeuRs_HmMb-23" value="" style="endArrow=diamondThin;endFill=0;endSize=24;html=1;rounded=1;exitX=0.5;exitY=0;exitDx=0;exitDy=0;entryX=1;entryY=0.5;entryDx=0;entryDy=0;" edge="1" parent="1" source="A6t6CvPQU8GeuRs_HmMb-16" target="A6t6CvPQU8GeuRs_HmMb-1">
          <mxGeometry width="160" relative="1" as="geometry">
            <mxPoint x="680" y="478" as="sourcePoint" />
            <mxPoint x="844" y="353" as="targetPoint" />
            <Array as="points">
              <mxPoint x="680" y="368" />
            </Array>
          </mxGeometry>
        </mxCell>
        <mxCell id="A6t6CvPQU8GeuRs_HmMb-24" value="" style="endArrow=none;html=1;edgeStyle=orthogonalEdgeStyle;rounded=0;exitX=1;exitY=0.5;exitDx=0;exitDy=0;entryX=0;entryY=0.5;entryDx=0;entryDy=0;" edge="1" parent="1" source="A6t6CvPQU8GeuRs_HmMb-15" target="A6t6CvPQU8GeuRs_HmMb-16">
          <mxGeometry relative="1" as="geometry">
            <mxPoint x="290" y="543" as="sourcePoint" />
            <mxPoint x="450" y="543" as="targetPoint" />
          </mxGeometry>
        </mxCell>
        <mxCell id="A6t6CvPQU8GeuRs_HmMb-25" value="1" style="edgeLabel;resizable=0;html=1;align=left;verticalAlign=bottom;fontSize=16;" connectable="0" vertex="1" parent="A6t6CvPQU8GeuRs_HmMb-24">
          <mxGeometry x="-1" relative="1" as="geometry">
            <mxPoint x="8" y="10" as="offset" />
          </mxGeometry>
        </mxCell>
        <mxCell id="A6t6CvPQU8GeuRs_HmMb-26" value="*" style="edgeLabel;resizable=0;html=1;align=right;verticalAlign=bottom;fontSize=16;" connectable="0" vertex="1" parent="A6t6CvPQU8GeuRs_HmMb-24">
          <mxGeometry x="1" relative="1" as="geometry">
            <mxPoint x="-13" y="14" as="offset" />
          </mxGeometry>
        </mxCell>
        <mxCell id="A6t6CvPQU8GeuRs_HmMb-27" value="" style="endArrow=none;html=1;edgeStyle=orthogonalEdgeStyle;rounded=1;exitX=1;exitY=0.5;exitDx=0;exitDy=0;entryX=0.5;entryY=1;entryDx=0;entryDy=0;" edge="1" parent="1" source="A6t6CvPQU8GeuRs_HmMb-17" target="A6t6CvPQU8GeuRs_HmMb-16">
          <mxGeometry relative="1" as="geometry">
            <mxPoint x="505" y="703" as="sourcePoint" />
            <mxPoint x="855" y="703" as="targetPoint" />
          </mxGeometry>
        </mxCell>
        <mxCell id="A6t6CvPQU8GeuRs_HmMb-28" value="1" style="edgeLabel;resizable=0;html=1;align=left;verticalAlign=bottom;fontSize=16;" connectable="0" vertex="1" parent="A6t6CvPQU8GeuRs_HmMb-27">
          <mxGeometry x="-1" relative="1" as="geometry">
            <mxPoint x="6" y="11" as="offset" />
          </mxGeometry>
        </mxCell>
        <mxCell id="A6t6CvPQU8GeuRs_HmMb-29" value="1" style="edgeLabel;resizable=0;html=1;align=right;verticalAlign=bottom;fontSize=16;" connectable="0" vertex="1" parent="A6t6CvPQU8GeuRs_HmMb-27">
          <mxGeometry x="1" relative="1" as="geometry">
            <mxPoint x="5" y="28" as="offset" />
          </mxGeometry>
        </mxCell>
        <mxCell id="A6t6CvPQU8GeuRs_HmMb-30" value="" style="endArrow=block;endSize=16;endFill=0;html=1;rounded=1;entryX=0.5;entryY=1;entryDx=0;entryDy=0;exitX=0.5;exitY=0;exitDx=0;exitDy=0;" edge="1" parent="1" source="A6t6CvPQU8GeuRs_HmMb-19" target="A6t6CvPQU8GeuRs_HmMb-17">
          <mxGeometry width="160" relative="1" as="geometry">
            <mxPoint x="264" y="867" as="sourcePoint" />
            <mxPoint x="424" y="763" as="targetPoint" />
            <Array as="points">
              <mxPoint x="574" y="793" />
              <mxPoint x="414" y="793" />
            </Array>
          </mxGeometry>
        </mxCell>
        <mxCell id="A6t6CvPQU8GeuRs_HmMb-33" value="" style="edgeStyle=orthogonalEdgeStyle;rounded=0;orthogonalLoop=1;jettySize=auto;html=1;entryX=0.5;entryY=0;entryDx=0;entryDy=0;exitX=0.5;exitY=1;exitDx=0;exitDy=0;endSize=24;endArrow=diamondThin;endFill=0;" edge="1" parent="1" source="A6t6CvPQU8GeuRs_HmMb-31" target="A6t6CvPQU8GeuRs_HmMb-1">
          <mxGeometry relative="1" as="geometry" />
        </mxCell>
        <mxCell id="A6t6CvPQU8GeuRs_HmMb-31" value="&lt;p style=&quot;margin:0px;margin-top:4px;text-align:center;&quot;&gt;&lt;b&gt;Sınıflar&lt;/b&gt;&lt;/p&gt;&lt;hr size=&quot;1&quot;&gt;&lt;p style=&quot;margin:0px;margin-left:4px;&quot;&gt;+ field: Type&lt;/p&gt;&lt;hr size=&quot;1&quot;&gt;&lt;p style=&quot;margin:0px;margin-left:4px;&quot;&gt;+ method(): Type&lt;/p&gt;" style="verticalAlign=top;align=left;overflow=fill;fontSize=12;fontFamily=Helvetica;html=1;whiteSpace=wrap;" vertex="1" parent="1">
          <mxGeometry x="334" y="143" width="160" height="90" as="geometry" />
        </mxCell>
      </root>
    </mxGraphModel>
  </diagram>
</mxfile>
